{
	"patcher" : 	{
		"fileversion" : 1,
		"appversion" : 		{
			"major" : 8,
			"minor" : 3,
			"revision" : 0,
			"architecture" : "x64",
			"modernui" : 1
		}
,
		"classnamespace" : "box",
		"rect" : [ 34.0, 87.0, 965.0, 509.0 ],
		"bglocked" : 0,
		"openinpresentation" : 0,
		"default_fontsize" : 12.0,
		"default_fontface" : 0,
		"default_fontname" : "Arial",
		"gridonopen" : 1,
		"gridsize" : [ 15.0, 15.0 ],
		"gridsnaponopen" : 1,
		"objectsnaponopen" : 1,
		"statusbarvisible" : 2,
		"toolbarvisible" : 1,
		"lefttoolbarpinned" : 0,
		"toptoolbarpinned" : 0,
		"righttoolbarpinned" : 0,
		"bottomtoolbarpinned" : 0,
		"toolbars_unpinned_last_save" : 0,
		"tallnewobj" : 0,
		"boxanimatetime" : 200,
		"enablehscroll" : 1,
		"enablevscroll" : 1,
		"devicewidth" : 0.0,
		"description" : "",
		"digest" : "",
		"tags" : "",
		"style" : "",
		"subpatcher_template" : "",
		"assistshowspatchername" : 0,
		"boxes" : [ 			{
				"box" : 				{
					"id" : "obj-1",
					"maxclass" : "newobj",
					"numinlets" : 0,
					"numoutlets" : 4,
					"outlettype" : [ "int", "int", "int", "int" ],
					"patching_rect" : [ 181.0, 537.0, 50.5, 22.0 ],
					"text" : "key"
				}

			}
, 			{
				"box" : 				{
					"bgmode" : 0,
					"border" : 0,
					"clickthrough" : 0,
					"enablehscroll" : 0,
					"enablevscroll" : 0,
					"id" : "obj-2",
					"lockeddragscroll" : 0,
					"lockedsize" : 0,
					"maxclass" : "bpatcher",
					"name" : "z.nav_buttons.maxpat",
					"numinlets" : 1,
					"numoutlets" : 2,
					"offset" : [ 0.0, 0.0 ],
					"outlettype" : [ "", "" ],
					"patching_rect" : [ 76.0, 583.0, 809.0, 46.0 ],
					"presentation" : 1,
					"presentation_rect" : [ 1.0, 481.0, 963.0, 13.0 ],
					"viewvisibility" : 1
				}

			}
, 			{
				"box" : 				{
					"id" : "obj-4",
					"maxclass" : "newobj",
					"numinlets" : 1,
					"numoutlets" : 1,
					"outlettype" : [ "" ],
					"patching_rect" : [ 76.0, 537.0, 89.0, 22.0 ],
					"text" : "loadmess set 1"
				}

			}
, 			{
				"box" : 				{
					"id" : "obj-3",
					"maxclass" : "newobj",
					"numinlets" : 1,
					"numoutlets" : 2,
					"outlettype" : [ "", "" ],
					"patching_rect" : [ 76.0, 664.0, 67.0, 22.0 ],
					"save" : [ "#N", "thispatcher", ";", "#Q", "end", ";" ],
					"text" : "thispatcher"
				}

			}
, 			{
				"box" : 				{
					"id" : "obj-10",
					"maxclass" : "newobj",
					"numinlets" : 1,
					"numoutlets" : 1,
					"outlettype" : [ "" ],
					"patching_rect" : [ 866.0, 669.0, 51.0, 22.0 ],
					"text" : "pcontrol"
				}

			}
, 			{
				"box" : 				{
					"id" : "obj-15",
					"maxclass" : "button",
					"numinlets" : 1,
					"numoutlets" : 1,
					"outlettype" : [ "bang" ],
					"parameter_enable" : 0,
					"patching_rect" : [ 463.0, 241.116022099447491, 24.0, 24.0 ]
				}

			}
, 			{
				"box" : 				{
					"id" : "obj-8",
					"maxclass" : "newobj",
					"numinlets" : 1,
					"numoutlets" : 2,
					"outlettype" : [ "bang", "int" ],
					"patching_rect" : [ 699.0, 216.116022099447491, 101.0, 22.0 ],
					"text" : "t b i"
				}

			}
, 			{
				"box" : 				{
					"fontface" : 1,
					"id" : "obj-33",
					"maxclass" : "comment",
					"numinlets" : 1,
					"numoutlets" : 0,
					"patching_rect" : [ 583.5, 84.0, 128.0, 20.0 ],
					"presentation" : 1,
					"presentation_rect" : [ 267.5, 191.0, 128.0, 20.0 ],
					"text" : "Adding two numbers",
					"textjustification" : 2
				}

			}
, 			{
				"box" : 				{
					"fontsize" : 19.216970146039294,
					"id" : "obj-28",
					"maxclass" : "number",
					"numinlets" : 1,
					"numoutlets" : 2,
					"outlettype" : [ "", "bang" ],
					"parameter_enable" : 0,
					"patching_rect" : [ 731.0, 362.232044198894982, 66.0, 30.0 ],
					"presentation" : 1,
					"presentation_rect" : [ 328.5, 386.908003857280619, 65.0, 30.0 ]
				}

			}
, 			{
				"box" : 				{
					"fontsize" : 19.07914807532924,
					"id" : "obj-27",
					"maxclass" : "number",
					"numinlets" : 1,
					"numoutlets" : 2,
					"outlettype" : [ "", "bang" ],
					"parameter_enable" : 0,
					"patching_rect" : [ 571.0, 362.232044198894982, 64.0, 30.0 ],
					"presentation" : 1,
					"presentation_rect" : [ 328.5, 350.908003857280619, 65.0, 30.0 ]
				}

			}
, 			{
				"box" : 				{
					"fontsize" : 18.699571489400128,
					"id" : "obj-26",
					"maxclass" : "number",
					"numinlets" : 1,
					"numoutlets" : 2,
					"outlettype" : [ "", "bang" ],
					"parameter_enable" : 0,
					"patching_rect" : [ 463.0, 362.232044198894982, 64.0, 29.0 ],
					"presentation" : 1,
					"presentation_rect" : [ 328.5, 314.940790742526531, 65.0, 29.0 ]
				}

			}
, 			{
				"box" : 				{
					"fontsize" : 18.943654080015524,
					"id" : "obj-24",
					"maxclass" : "newobj",
					"numinlets" : 2,
					"numoutlets" : 1,
					"outlettype" : [ "float" ],
					"patcher" : 					{
						"fileversion" : 1,
						"appversion" : 						{
							"major" : 8,
							"minor" : 3,
							"revision" : 0,
							"architecture" : "x64",
							"modernui" : 1
						}
,
						"classnamespace" : "dsp.gen",
						"rect" : [ 215.0, 119.0, 600.0, 450.0 ],
						"bglocked" : 0,
						"openinpresentation" : 0,
						"default_fontsize" : 12.0,
						"default_fontface" : 0,
						"default_fontname" : "Arial",
						"gridonopen" : 1,
						"gridsize" : [ 15.0, 15.0 ],
						"gridsnaponopen" : 1,
						"objectsnaponopen" : 1,
						"statusbarvisible" : 2,
						"toolbarvisible" : 1,
						"lefttoolbarpinned" : 0,
						"toptoolbarpinned" : 0,
						"righttoolbarpinned" : 0,
						"bottomtoolbarpinned" : 0,
						"toolbars_unpinned_last_save" : 0,
						"tallnewobj" : 0,
						"boxanimatetime" : 200,
						"enablehscroll" : 1,
						"enablevscroll" : 1,
						"devicewidth" : 0.0,
						"description" : "",
						"digest" : "",
						"tags" : "",
						"style" : "",
						"subpatcher_template" : "",
						"assistshowspatchername" : 0,
						"boxes" : [ 							{
								"box" : 								{
									"id" : "obj-1",
									"maxclass" : "newobj",
									"numinlets" : 0,
									"numoutlets" : 1,
									"outlettype" : [ "" ],
									"patching_rect" : [ 50.0, 14.0, 28.0, 22.0 ],
									"text" : "in 1"
								}

							}
, 							{
								"box" : 								{
									"id" : "obj-2",
									"maxclass" : "newobj",
									"numinlets" : 0,
									"numoutlets" : 1,
									"outlettype" : [ "" ],
									"patching_rect" : [ 305.0, 14.0, 28.0, 22.0 ],
									"text" : "in 2"
								}

							}
, 							{
								"box" : 								{
									"id" : "obj-3",
									"maxclass" : "newobj",
									"numinlets" : 2,
									"numoutlets" : 1,
									"outlettype" : [ "" ],
									"patching_rect" : [ 176.0, 149.0, 29.5, 22.0 ],
									"text" : "+"
								}

							}
, 							{
								"box" : 								{
									"id" : "obj-4",
									"maxclass" : "newobj",
									"numinlets" : 1,
									"numoutlets" : 0,
									"patching_rect" : [ 176.0, 418.0, 35.0, 22.0 ],
									"text" : "out 1"
								}

							}
 ],
						"lines" : [ 							{
								"patchline" : 								{
									"destination" : [ "obj-3", 0 ],
									"source" : [ "obj-1", 0 ]
								}

							}
, 							{
								"patchline" : 								{
									"destination" : [ "obj-3", 1 ],
									"source" : [ "obj-2", 0 ]
								}

							}
, 							{
								"patchline" : 								{
									"destination" : [ "obj-4", 0 ],
									"source" : [ "obj-3", 0 ]
								}

							}
 ],
						"autosave" : 0
					}
,
					"patching_rect" : [ 731.0, 311.116022099447491, 69.0, 30.0 ],
					"presentation" : 1,
					"presentation_rect" : [ 275.5, 386.908003857280619, 45.0, 30.0 ],
					"text" : "gen"
				}

			}
, 			{
				"box" : 				{
					"fontsize" : 18.943654080015524,
					"id" : "obj-23",
					"maxclass" : "newobj",
					"numinlets" : 2,
					"numoutlets" : 1,
					"outlettype" : [ "" ],
					"patching_rect" : [ 571.0, 311.116022099447491, 123.0, 30.0 ],
					"presentation" : 1,
					"presentation_rect" : [ 197.5, 350.908003857280619, 123.0, 30.0 ],
					"text" : "expr $i1 + $i2"
				}

			}
, 			{
				"box" : 				{
					"fontsize" : 16.237595147804967,
					"id" : "obj-22",
					"maxclass" : "number",
					"maximum" : 10,
					"minimum" : 0,
					"numinlets" : 1,
					"numoutlets" : 2,
					"outlettype" : [ "", "bang" ],
					"parameter_enable" : 0,
					"patching_rect" : [ 699.0, 180.116022099447491, 49.0, 27.0 ],
					"presentation" : 1,
					"presentation_rect" : [ 344.5, 268.524999999999977, 49.0, 27.0 ]
				}

			}
, 			{
				"box" : 				{
					"fontsize" : 16.237595147804967,
					"id" : "obj-21",
					"maxclass" : "number",
					"maximum" : 10,
					"minimum" : 0,
					"numinlets" : 1,
					"numoutlets" : 2,
					"outlettype" : [ "", "bang" ],
					"parameter_enable" : 0,
					"patching_rect" : [ 561.0, 180.116022099447491, 49.0, 27.0 ],
					"presentation" : 1,
					"presentation_rect" : [ 292.5, 268.524999999999977, 49.0, 27.0 ]
				}

			}
, 			{
				"box" : 				{
					"bgcolor" : [ 0.407843137254902, 0.129411764705882, 0.129411764705882, 1.0 ],
					"id" : "obj-13",
					"maxclass" : "dial",
					"numinlets" : 1,
					"numoutlets" : 1,
					"outlettype" : [ "float" ],
					"parameter_enable" : 0,
					"patching_rect" : [ 699.0, 131.116022099447491, 40.0, 40.0 ],
					"presentation" : 1,
					"presentation_rect" : [ 344.5, 217.5, 49.0, 49.0 ],
					"size" : 10.0
				}

			}
, 			{
				"box" : 				{
					"bgcolor" : [ 0.196078431372549, 0.180392156862745, 0.407843137254902, 1.0 ],
					"id" : "obj-12",
					"maxclass" : "dial",
					"numinlets" : 1,
					"numoutlets" : 1,
					"outlettype" : [ "float" ],
					"parameter_enable" : 0,
					"patching_rect" : [ 561.0, 131.116022099447491, 40.0, 40.0 ],
					"presentation" : 1,
					"presentation_rect" : [ 292.5, 217.5, 49.0, 49.0 ],
					"size" : 10.0
				}

			}
, 			{
				"box" : 				{
					"fontsize" : 18.943654080015524,
					"id" : "obj-7",
					"maxclass" : "newobj",
					"numinlets" : 2,
					"numoutlets" : 1,
					"outlettype" : [ "int" ],
					"patching_rect" : [ 463.0, 311.116022099447491, 70.0, 30.0 ],
					"presentation" : 1,
					"presentation_rect" : [ 296.5, 314.940790742526531, 24.0, 30.0 ],
					"text" : "+"
				}

			}
, 			{
				"box" : 				{
					"bgcolor" : [ 0.866667, 0.866667, 0.866667, 0.0 ],
					"bgfillcolor_autogradient" : 0.79,
					"bgfillcolor_color" : [ 0.2, 0.2, 0.2, 1 ],
					"bgfillcolor_color1" : [ 0.866667, 0.866667, 0.866667, 0.0 ],
					"bgfillcolor_color2" : [ 0.07451, 0.027451, 1.0, 1.0 ],
					"bgfillcolor_type" : "gradient",
					"fontface" : 0,
					"fontname" : "Lucida Grande",
					"fontsize" : 9.0,
					"gradient" : 0,
					"id" : "obj-9",
					"linecount" : 3,
					"maxclass" : "message",
					"numinlets" : 2,
					"numoutlets" : 1,
					"outlettype" : [ "" ],
					"patching_rect" : [ 23.0, 419.0, 188.0, 40.0 ],
					"presentation" : 1,
					"presentation_linecount" : 4,
					"presentation_rect" : [ 520.0, 410.614334470989775, 138.0, 51.0 ],
					"text" : "Programming Paradigms for Dummies: What Every Programmer Should Know - Peter Van Roy",
					"textcolor" : [ 0.250980392156863, 0.203921568627451, 0.937254901960784, 1.0 ]
				}

			}
, 			{
				"box" : 				{
					"fontname" : "Verdana",
					"fontsize" : 9.0,
					"hidden" : 1,
					"id" : "obj-58",
					"linecount" : 2,
					"maxclass" : "message",
					"numinlets" : 2,
					"numoutlets" : 1,
					"outlettype" : [ "" ],
					"patching_rect" : [ 23.0, 466.116022099447491, 337.0, 30.0 ],
					"text" : ";\rmax launchbrowser https://www.info.ucl.ac.be/~pvr/VanRoyChapter.pdf"
				}

			}
, 			{
				"box" : 				{
					"fontface" : 1,
					"id" : "obj-5",
					"maxclass" : "comment",
					"numinlets" : 1,
					"numoutlets" : 0,
					"patching_rect" : [ 23.0, 92.116022099447491, 161.0, 20.0 ],
					"presentation" : 1,
					"presentation_rect" : [ 84.0, 89.0, 213.0, 20.0 ],
					"text" : "Program Paradigm"
				}

			}
, 			{
				"box" : 				{
					"id" : "obj-17",
					"maxclass" : "newobj",
					"numinlets" : 1,
					"numoutlets" : 1,
					"outlettype" : [ "bang" ],
					"patching_rect" : [ -96.0, 88.0, 58.0, 22.0 ],
					"text" : "loadbang"
				}

			}
, 			{
				"box" : 				{
					"bgcolor" : [ 0.2, 0.2, 0.2, 0.0 ],
					"blinkcolor" : [ 0.156862745098039, 0.156862745098039, 0.156862745098039, 1.0 ],
					"id" : "obj-16",
					"maxclass" : "button",
					"numinlets" : 1,
					"numoutlets" : 1,
					"outlettype" : [ "bang" ],
					"outlinecolor" : [ 0.349019607843137, 0.349019607843137, 0.349019607843137, 0.0 ],
					"parameter_enable" : 0,
					"patching_rect" : [ -3.0, 10.339684411917677, 24.0, 24.0 ],
					"presentation" : 1,
					"presentation_rect" : [ 5.0, 9.116022099447513, 24.0, 24.0 ]
				}

			}
, 			{
				"box" : 				{
					"id" : "obj-14",
					"maxclass" : "newobj",
					"numinlets" : 2,
					"numoutlets" : 1,
					"outlettype" : [ "bang" ],
					"patching_rect" : [ -96.0, 124.0, 63.0, 22.0 ],
					"text" : "metro 666"
				}

			}
, 			{
				"box" : 				{
					"id" : "obj-11",
					"linecount" : 7,
					"maxclass" : "comment",
					"numinlets" : 1,
					"numoutlets" : 0,
					"patching_rect" : [ 23.0, 92.116022099447491, 360.0, 100.0 ],
					"presentation" : 1,
					"presentation_linecount" : 5,
					"presentation_rect" : [ 84.0, 89.0, 570.0, 74.0 ],
					"text" : "                                 refers to a style of programming to manage the complexity of a program.\n\nSolving a programming problem requires choosing the right concepts. All but the smallest toy problems require different sets of concepts for different parts. This is why programming languages should support many paradigms."
				}

			}
, 			{
				"box" : 				{
					"bubbleusescolors" : 1,
					"fontface" : 1,
					"fontsize" : 23.887874162066449,
					"id" : "obj-6",
					"linecount" : 2,
					"maxclass" : "comment",
					"numinlets" : 1,
					"numoutlets" : 0,
					"patching_rect" : [ 23.0, 10.339684411917677, 231.0, 60.0 ],
					"presentation" : 1,
					"presentation_linecount" : 2,
					"presentation_rect" : [ 28.0, 5.116022099447513, 234.0, 60.0 ],
					"text" : "Programming Paradigms"
				}

			}
 ],
		"lines" : [ 			{
				"patchline" : 				{
					"destination" : [ "obj-2", 0 ],
					"source" : [ "obj-1", 0 ]
				}

			}
, 			{
				"patchline" : 				{
					"destination" : [ "obj-21", 0 ],
					"source" : [ "obj-12", 0 ]
				}

			}
, 			{
				"patchline" : 				{
					"destination" : [ "obj-22", 0 ],
					"source" : [ "obj-13", 0 ]
				}

			}
, 			{
				"patchline" : 				{
					"color" : [ 0.894117647058824, 0.894117647058824, 0.894117647058824, 1.0 ],
					"destination" : [ "obj-16", 0 ],
					"source" : [ "obj-14", 0 ]
				}

			}
, 			{
				"patchline" : 				{
					"color" : [ 0.694117647058824, 0.694117647058824, 0.694117647058824, 1.0 ],
					"destination" : [ "obj-23", 0 ],
					"midpoints" : [ 472.5, 277.0, 580.5, 277.0 ],
					"order" : 1,
					"source" : [ "obj-15", 0 ]
				}

			}
, 			{
				"patchline" : 				{
					"color" : [ 0.694117647058824, 0.694117647058824, 0.694117647058824, 1.0 ],
					"destination" : [ "obj-24", 0 ],
					"midpoints" : [ 472.5, 277.0, 740.5, 277.0 ],
					"order" : 0,
					"source" : [ "obj-15", 0 ]
				}

			}
, 			{
				"patchline" : 				{
					"color" : [ 0.694117647058824, 0.694117647058824, 0.694117647058824, 1.0 ],
					"destination" : [ "obj-7", 0 ],
					"midpoints" : [ 472.5, 278.0, 472.5, 278.0 ],
					"order" : 2,
					"source" : [ "obj-15", 0 ]
				}

			}
, 			{
				"patchline" : 				{
					"destination" : [ "obj-14", 0 ],
					"source" : [ "obj-17", 0 ]
				}

			}
, 			{
				"patchline" : 				{
					"destination" : [ "obj-10", 0 ],
					"source" : [ "obj-2", 1 ]
				}

			}
, 			{
				"patchline" : 				{
					"destination" : [ "obj-3", 0 ],
					"source" : [ "obj-2", 0 ]
				}

			}
, 			{
				"patchline" : 				{
					"color" : [ 0.352941176470588, 0.337254901960784, 0.52156862745098, 1.0 ],
					"destination" : [ "obj-23", 0 ],
					"midpoints" : [ 570.5, 290.0, 580.5, 290.0 ],
					"order" : 1,
					"source" : [ "obj-21", 0 ]
				}

			}
, 			{
				"patchline" : 				{
					"color" : [ 0.352941176470588, 0.337254901960784, 0.52156862745098, 1.0 ],
					"destination" : [ "obj-24", 0 ],
					"midpoints" : [ 570.5, 299.0, 706.0, 299.0, 706.0, 299.0, 740.5, 299.0 ],
					"order" : 0,
					"source" : [ "obj-21", 0 ]
				}

			}
, 			{
				"patchline" : 				{
					"color" : [ 0.352941176470588, 0.337254901960784, 0.52156862745098, 1.0 ],
					"destination" : [ "obj-7", 0 ],
					"midpoints" : [ 570.5, 290.0, 472.5, 290.0 ],
					"order" : 2,
					"source" : [ "obj-21", 0 ]
				}

			}
, 			{
				"patchline" : 				{
					"destination" : [ "obj-8", 0 ],
					"source" : [ "obj-22", 0 ]
				}

			}
, 			{
				"patchline" : 				{
					"destination" : [ "obj-27", 0 ],
					"source" : [ "obj-23", 0 ]
				}

			}
, 			{
				"patchline" : 				{
					"destination" : [ "obj-28", 0 ],
					"source" : [ "obj-24", 0 ]
				}

			}
, 			{
				"patchline" : 				{
					"destination" : [ "obj-2", 0 ],
					"source" : [ "obj-4", 0 ]
				}

			}
, 			{
				"patchline" : 				{
					"destination" : [ "obj-26", 0 ],
					"source" : [ "obj-7", 0 ]
				}

			}
, 			{
				"patchline" : 				{
					"destination" : [ "obj-15", 0 ],
					"source" : [ "obj-8", 0 ]
				}

			}
, 			{
				"patchline" : 				{
					"color" : [ 0.619607843137255, 0.250980392156863, 0.250980392156863, 1.0 ],
					"destination" : [ "obj-23", 1 ],
					"midpoints" : [ 790.5, 249.0, 684.5, 249.0 ],
					"order" : 1,
					"source" : [ "obj-8", 1 ]
				}

			}
, 			{
				"patchline" : 				{
					"color" : [ 0.619607843137255, 0.250980392156863, 0.250980392156863, 1.0 ],
					"destination" : [ "obj-24", 1 ],
					"midpoints" : [ 790.5, 256.0, 790.5, 256.0 ],
					"order" : 0,
					"source" : [ "obj-8", 1 ]
				}

			}
, 			{
				"patchline" : 				{
					"color" : [ 0.619607843137255, 0.250980392156863, 0.250980392156863, 1.0 ],
					"destination" : [ "obj-7", 1 ],
					"midpoints" : [ 790.5, 249.0, 523.5, 249.0 ],
					"order" : 2,
					"source" : [ "obj-8", 1 ]
				}

			}
, 			{
				"patchline" : 				{
					"destination" : [ "obj-58", 0 ],
					"hidden" : 1,
					"source" : [ "obj-9", 0 ]
				}

			}
 ],
		"dependency_cache" : [ 			{
				"name" : "z.nav_buttons.maxpat",
				"bootpath" : "~/gdrive/Max Programming Guidelines",
				"patcherrelativepath" : ".",
				"type" : "JSON",
				"implicit" : 1
			}
 ],
		"autosave" : 0
	}

}
